# xmcd
#
# Track frame offsets:
#	150
#	11002
#	28557
#	40710
#	66937
#	81855
#	99960
#	111365
#	129800
#	140385
#	149897
#	174960
#
# Disc length: 2508
#
# Revision: 2
# Processed by: cddbd v1.5.1PL0 Copyright (c) Steve Scherf et al.
# Submitted via: DiscPlay 4.0.4
# Normalized: r1:DSETVAR1,TDELIM( - )
#
DISCID=9c09ca0c
DTITLE=Various Artist - In The Grooves
DYEAR=1900
DGENRE=
TTITLE0=Jimmy Page - Dixie Fried
TTITLE1=Mick Green - Pain Killer
TTITLE2=Jimi Hendrix - Voice In The Wind
TTITLE3=Jimmy Page - Burn Up
TTITLE4=Mick Green - Shakin' All Over (One For The Kidd)
TTITLE5=Jimi Hendrix - Good Times
TTITLE6=Albert Lee - Everyday
TTITLE7=Mike Bloomfield - Don't You Lie To Me
TTITLE8=Eric Clapton - Got To Hurry
TTITLE9=Albert Lee - Boll Weevil Song
TTITLE10=Mike Bloomfield - You Might Have Jesus
TTITLE11=Eric Clapton - Too Much Monkey Business
EXTD=
EXTT0=
EXTT1=
EXTT2=
EXTT3=
EXTT4=
EXTT5=
EXTT6=
EXTT7=
EXTT8=
EXTT9=
EXTT10=
EXTT11=
PLAYORDER=
